<svg xmlns="http://www.w3.org/2000/svg" viewBox="0 0 1920.21 422.03"><g id="Layer_1" data-name="Layer 1"><path d="M1920,1080H0V788a1517.06,1517.06,0,0,1,337-23c344.39,15.2,399.32,137.7,659,131,252.09-6.51,294.54-124.26,585-123,143.76.62,261.5,30,339,55Z" transform="translate(0 -657.97)" style="fill:#999"/><path d="M1042-114" transform="translate(0 -657.97)" style="fill:#999"/></g><g id="Layer_2" data-name="Layer 2"><g style="opacity:0.54"><path d="M.21,1080h1920L1920,721.53A1083.52,1083.52,0,0,0,1684,665c-360.7-44.22-443.07,134.6-779,135-295.9.35-393-138.2-720-80A1095.93,1095.93,0,0,0,0,770Z" transform="translate(0 -657.97)" style="fill:#999"/></g></g></svg>